<svg width="500" height="500" viewBox="0 0 500 500" fill="none" xmlns="http://www.w3.org/2000/svg">
<rect width="500" height="500" rx="50" fill="white"/>
<circle cx="250" cy="165" r="100" fill="#E6ECFF"/>
<circle cx="218" cy="209" r="25" fill="#3A5287"/>
<path d="M260 119.984L327 107L308 138.5L327 166.016L260 179V119.984Z" fill="#1E3871"/>
<path d="M237 114.279L283 104V150.721L237 161V114.279Z" fill="#E6ECFF"/>
<rect x="223" y="109" width="20" height="100" fill="#3A5287"/>
<path d="M223 109L279 98V148L223 159V109Z" fill="#3A5287"/>
<path d="M92.7807 349.525C87.8807 349.525 83.3807 348.375 79.2807 346.075C75.1807 343.775 71.9307 340.6 69.5307 336.55C67.1307 332.45 65.9307 327.825 65.9307 322.675C65.9307 317.575 67.1307 313 69.5307 308.95C71.9307 304.85 75.1807 301.65 79.2807 299.35C83.3807 297.05 87.8807 295.9 92.7807 295.9C97.7307 295.9 102.231 297.05 106.281 299.35C110.381 301.65 113.606 304.85 115.956 308.95C118.356 313 119.556 317.575 119.556 322.675C119.556 327.825 118.356 332.45 115.956 336.55C113.606 340.6 110.381 343.775 106.281 346.075C102.181 348.375 97.6807 349.525 92.7807 349.525ZM92.7807 340.15C95.9307 340.15 98.7057 339.45 101.106 338.05C103.506 336.6 105.381 334.55 106.731 331.9C108.081 329.25 108.756 326.175 108.756 322.675C108.756 319.175 108.081 316.125 106.731 313.525C105.381 310.875 103.506 308.85 101.106 307.45C98.7057 306.05 95.9307 305.35 92.7807 305.35C89.6307 305.35 86.8307 306.05 84.3807 307.45C81.9807 308.85 80.1057 310.875 78.7557 313.525C77.4057 316.125 76.7307 319.175 76.7307 322.675C76.7307 326.175 77.4057 329.25 78.7557 331.9C80.1057 334.55 81.9807 336.6 84.3807 338.05C86.8307 339.45 89.6307 340.15 92.7807 340.15ZM170.792 296.65V349H160.292V326.725H137.867V349H127.367V296.65H137.867V318.175H160.292V296.65H170.792ZM213.077 317.8V326.65H181.277V317.8H213.077ZM242.928 349.525C239.278 349.525 235.978 348.9 233.028 347.65C230.128 346.4 227.828 344.6 226.128 342.25C224.428 339.9 223.553 337.125 223.503 333.925H234.753C234.903 336.075 235.653 337.775 237.003 339.025C238.403 340.275 240.303 340.9 242.703 340.9C245.153 340.9 247.078 340.325 248.478 339.175C249.878 337.975 250.578 336.425 250.578 334.525C250.578 332.975 250.103 331.7 249.153 330.7C248.203 329.7 247.003 328.925 245.553 328.375C244.153 327.775 242.203 327.125 239.703 326.425C236.303 325.425 233.528 324.45 231.378 323.5C229.278 322.5 227.453 321.025 225.903 319.075C224.403 317.075 223.653 314.425 223.653 311.125C223.653 308.025 224.428 305.325 225.978 303.025C227.528 300.725 229.703 298.975 232.503 297.775C235.303 296.525 238.503 295.9 242.103 295.9C247.503 295.9 251.878 297.225 255.228 299.875C258.628 302.475 260.503 306.125 260.853 310.825H249.303C249.203 309.025 248.428 307.55 246.978 306.4C245.578 305.2 243.703 304.6 241.353 304.6C239.303 304.6 237.653 305.125 236.403 306.175C235.203 307.225 234.603 308.75 234.603 310.75C234.603 312.15 235.053 313.325 235.953 314.275C236.903 315.175 238.053 315.925 239.403 316.525C240.803 317.075 242.753 317.725 245.253 318.475C248.653 319.475 251.428 320.475 253.578 321.475C255.728 322.475 257.578 323.975 259.128 325.975C260.678 327.975 261.453 330.6 261.453 333.85C261.453 336.65 260.728 339.25 259.278 341.65C257.828 344.05 255.703 345.975 252.903 347.425C250.103 348.825 246.778 349.525 242.928 349.525ZM306.181 296.65V305.125H292.231V349H281.731V305.125H267.781V296.65H306.181ZM324.342 305.125V318.25H341.967V326.575H324.342V340.45H344.217V349H313.842V296.575H344.217V305.125H324.342ZM385.859 339.025H365.009L361.559 349H350.534L369.359 296.575H381.584L400.409 349H389.309L385.859 339.025ZM383.009 330.625L375.434 308.725L367.859 330.625H383.009ZM417.946 340.675H435.196V349H407.446V296.65H417.946V340.675Z" fill="black"/>
<path d="M115.177 407.72C116.67 407.987 117.937 408.773 118.977 410.08C120.017 411.387 120.537 412.867 120.537 414.52C120.537 415.933 120.164 417.213 119.417 418.36C118.697 419.48 117.644 420.373 116.257 421.04C114.87 421.68 113.257 422 111.417 422H100.297V394.2H110.897C112.79 394.2 114.417 394.52 115.777 395.16C117.137 395.8 118.164 396.667 118.857 397.76C119.55 398.827 119.897 400.027 119.897 401.36C119.897 402.96 119.47 404.293 118.617 405.36C117.764 406.427 116.617 407.213 115.177 407.72ZM104.857 405.88H110.497C111.99 405.88 113.15 405.547 113.977 404.88C114.83 404.187 115.257 403.2 115.257 401.92C115.257 400.667 114.83 399.693 113.977 399C113.15 398.28 111.99 397.92 110.497 397.92H104.857V405.88ZM111.017 418.28C112.564 418.28 113.777 417.907 114.657 417.16C115.537 416.413 115.977 415.373 115.977 414.04C115.977 412.68 115.51 411.6 114.577 410.8C113.644 410 112.404 409.6 110.857 409.6H104.857V418.28H111.017ZM145.612 402.2C144.892 400.813 143.892 399.773 142.612 399.08C141.332 398.36 139.852 398 138.172 398C136.332 398 134.692 398.413 133.252 399.24C131.812 400.067 130.679 401.24 129.852 402.76C129.052 404.28 128.652 406.04 128.652 408.04C128.652 410.04 129.052 411.813 129.852 413.36C130.679 414.88 131.812 416.053 133.252 416.88C134.692 417.707 136.332 418.12 138.172 418.12C140.652 418.12 142.666 417.427 144.212 416.04C145.759 414.653 146.706 412.773 147.052 410.4H136.612V406.76H151.932V410.32C151.639 412.48 150.866 414.467 149.612 416.28C148.386 418.093 146.772 419.547 144.772 420.64C142.799 421.707 140.599 422.24 138.172 422.24C135.559 422.24 133.172 421.64 131.012 420.44C128.852 419.213 127.132 417.52 125.852 415.36C124.599 413.2 123.972 410.76 123.972 408.04C123.972 405.32 124.599 402.88 125.852 400.72C127.132 398.56 128.852 396.88 131.012 395.68C133.199 394.453 135.586 393.84 138.172 393.84C141.132 393.84 143.759 394.573 146.052 396.04C148.372 397.48 150.052 399.533 151.092 402.2H145.612ZM185.71 394.2V422H181.15V402.96L172.67 422H169.51L160.99 402.96V422H156.43V394.2H161.35L171.11 416L180.83 394.2H185.71ZM222.694 394.2L213.494 411.92V422H208.934V411.92L199.694 394.2H204.774L211.214 407.84L217.654 394.2H222.694ZM235.873 422.36C233.793 422.36 231.913 421.893 230.233 420.96C228.553 420 227.233 418.667 226.273 416.96C225.313 415.227 224.833 413.227 224.833 410.96C224.833 408.72 225.326 406.733 226.313 405C227.299 403.267 228.646 401.933 230.353 401C232.059 400.067 233.966 399.6 236.073 399.6C238.179 399.6 240.086 400.067 241.793 401C243.499 401.933 244.846 403.267 245.833 405C246.819 406.733 247.313 408.72 247.313 410.96C247.313 413.2 246.806 415.187 245.793 416.92C244.779 418.653 243.393 420 241.633 420.96C239.899 421.893 237.979 422.36 235.873 422.36ZM235.873 418.4C237.046 418.4 238.139 418.12 239.153 417.56C240.193 417 241.033 416.16 241.673 415.04C242.313 413.92 242.633 412.56 242.633 410.96C242.633 409.36 242.326 408.013 241.713 406.92C241.099 405.8 240.286 404.96 239.273 404.4C238.259 403.84 237.166 403.56 235.993 403.56C234.819 403.56 233.726 403.84 232.713 404.4C231.726 404.96 230.939 405.8 230.353 406.92C229.766 408.013 229.473 409.36 229.473 410.96C229.473 413.333 230.073 415.173 231.273 416.48C232.499 417.76 234.033 418.4 235.873 418.4ZM271.78 399.96V422H267.22V419.4C266.5 420.307 265.554 421.027 264.38 421.56C263.234 422.067 262.007 422.32 260.7 422.32C258.967 422.32 257.407 421.96 256.02 421.24C254.66 420.52 253.58 419.453 252.78 418.04C252.007 416.627 251.62 414.92 251.62 412.92V399.96H256.14V412.24C256.14 414.213 256.634 415.733 257.62 416.8C258.607 417.84 259.954 418.36 261.66 418.36C263.367 418.36 264.714 417.84 265.7 416.8C266.714 415.733 267.22 414.213 267.22 412.24V399.96H271.78ZM282.357 403.16C283.024 402.04 283.904 401.173 284.997 400.56C286.117 399.92 287.437 399.6 288.957 399.6V404.32H287.797C286.01 404.32 284.65 404.773 283.717 405.68C282.81 406.587 282.357 408.16 282.357 410.4V422H277.797V399.96H282.357V403.16ZM312.699 422.28C310.832 422.28 309.152 421.96 307.659 421.32C306.166 420.653 304.992 419.72 304.139 418.52C303.286 417.32 302.859 415.92 302.859 414.32H307.739C307.846 415.52 308.312 416.507 309.139 417.28C309.992 418.053 311.179 418.44 312.699 418.44C314.272 418.44 315.499 418.067 316.379 417.32C317.259 416.547 317.699 415.56 317.699 414.36C317.699 413.427 317.419 412.667 316.859 412.08C316.326 411.493 315.646 411.04 314.819 410.72C314.019 410.4 312.899 410.053 311.459 409.68C309.646 409.2 308.166 408.72 307.019 408.24C305.899 407.733 304.939 406.96 304.139 405.92C303.339 404.88 302.939 403.493 302.939 401.76C302.939 400.16 303.339 398.76 304.139 397.56C304.939 396.36 306.059 395.44 307.499 394.8C308.939 394.16 310.606 393.84 312.499 393.84C315.192 393.84 317.392 394.52 319.099 395.88C320.832 397.213 321.792 399.053 321.979 401.4H316.939C316.859 400.387 316.379 399.52 315.499 398.8C314.619 398.08 313.459 397.72 312.019 397.72C310.712 397.72 309.646 398.053 308.819 398.72C307.992 399.387 307.579 400.347 307.579 401.6C307.579 402.453 307.832 403.16 308.339 403.72C308.872 404.253 309.539 404.68 310.339 405C311.139 405.32 312.232 405.667 313.619 406.04C315.459 406.547 316.952 407.053 318.099 407.56C319.272 408.067 320.259 408.853 321.059 409.92C321.886 410.96 322.299 412.36 322.299 414.12C322.299 415.533 321.912 416.867 321.139 418.12C320.392 419.373 319.286 420.387 317.819 421.16C316.379 421.907 314.672 422.28 312.699 422.28ZM333 403.68V415.88C333 416.707 333.186 417.307 333.56 417.68C333.96 418.027 334.626 418.2 335.56 418.2H338.36V422H334.76C332.706 422 331.133 421.52 330.04 420.56C328.946 419.6 328.4 418.04 328.4 415.88V403.68H325.8V399.96H328.4V394.48H333V399.96H338.36V403.68H333ZM352.123 422.36C350.043 422.36 348.163 421.893 346.483 420.96C344.803 420 343.483 418.667 342.523 416.96C341.563 415.227 341.083 413.227 341.083 410.96C341.083 408.72 341.576 406.733 342.563 405C343.549 403.267 344.896 401.933 346.603 401C348.309 400.067 350.216 399.6 352.323 399.6C354.429 399.6 356.336 400.067 358.043 401C359.749 401.933 361.096 403.267 362.083 405C363.069 406.733 363.563 408.72 363.563 410.96C363.563 413.2 363.056 415.187 362.043 416.92C361.029 418.653 359.643 420 357.883 420.96C356.149 421.893 354.229 422.36 352.123 422.36ZM352.123 418.4C353.296 418.4 354.389 418.12 355.403 417.56C356.443 417 357.283 416.16 357.923 415.04C358.563 413.92 358.883 412.56 358.883 410.96C358.883 409.36 358.576 408.013 357.963 406.92C357.349 405.8 356.536 404.96 355.523 404.4C354.509 403.84 353.416 403.56 352.243 403.56C351.069 403.56 349.976 403.84 348.963 404.4C347.976 404.96 347.189 405.8 346.603 406.92C346.016 408.013 345.723 409.36 345.723 410.96C345.723 413.333 346.323 415.173 347.523 416.48C348.749 417.76 350.283 418.4 352.123 418.4ZM372.63 403.16C373.297 402.04 374.177 401.173 375.27 400.56C376.39 399.92 377.71 399.6 379.23 399.6V404.32H378.07C376.284 404.32 374.924 404.773 373.99 405.68C373.084 406.587 372.63 408.16 372.63 410.4V422H368.07V399.96H372.63V403.16ZM403.262 399.96L389.742 432.36H385.022L389.502 421.64L380.822 399.96H385.902L392.102 416.76L398.542 399.96H403.262Z" fill="black"/>
</svg>
